<svg width="179" height="48" viewBox="0 0 179 48" fill="none" xmlns="http://www.w3.org/2000/svg">
<g clip-path="url(#clip0_2461_69811)">
<path fill-rule="evenodd" clip-rule="evenodd" d="M108.828 31.0712V18.257C108.828 17.4917 108.743 17.0289 108.574 16.8687C108.405 16.7086 107.935 16.6463 107.164 16.6819V16.1746C107.698 16.0501 108.454 15.8454 109.433 15.5606L111.097 15V23.1157C112.2 21.6919 113.482 20.98 114.941 20.98C116.223 20.98 117.121 21.3626 117.637 22.1279C118.082 22.8042 118.305 23.9255 118.305 25.4917V31.0712C118.265 31.528 118.393 31.9836 118.665 32.3526C119.035 32.6733 119.511 32.8446 120 32.8331V33.2069H114.354V32.8331C114.843 32.8446 115.319 32.6733 115.689 32.3526C115.961 31.9836 116.089 31.528 116.049 31.0712V25.5184C116.091 24.7941 115.992 24.0686 115.755 23.3826C115.604 23.0585 115.356 22.7894 115.045 22.6124C114.734 22.4355 114.376 22.3595 114.02 22.3949C113.407 22.382 112.804 22.5491 112.285 22.8754C111.863 23.2156 111.47 23.5907 111.11 23.9967V31.0712C111.07 31.528 111.198 31.9836 111.471 32.3526C111.84 32.6733 112.316 32.8446 112.805 32.8331V33.2069H107.164V32.8331C107.653 32.8446 108.129 32.6733 108.498 32.3526C108.76 31.9794 108.877 31.5241 108.828 31.0712ZM88.7519 31.0713V24.6108C88.785 24.07 88.7217 23.5277 88.5651 23.009C88.5084 22.8674 88.4078 22.7478 88.278 22.6677C88.1483 22.5876 87.9962 22.5513 87.8443 22.5641C87.465 22.5872 87.0892 22.6498 86.723 22.751V22.3772L91.0211 20.9623V31.0713C91 31.3018 91.0257 31.5341 91.0968 31.7544C91.168 31.9746 91.283 32.1782 91.4349 32.3527C91.9128 32.6679 92.4782 32.8237 93.0501 32.7977V33.1714H86.723V32.7977C87.2949 32.8237 87.8603 32.6679 88.3381 32.3527C88.4901 32.1782 88.6051 31.9746 88.6762 31.7544C88.7474 31.5341 88.7731 31.3018 88.7519 31.0713ZM89.673 17.7231C89.4952 17.7256 89.3189 17.6913 89.1551 17.6224C88.9912 17.5535 88.8434 17.4514 88.7208 17.3227C88.5939 17.1971 88.4934 17.0474 88.4254 16.8823C88.3574 16.7172 88.3232 16.5402 88.3248 16.3616C88.3232 16.1831 88.3574 16.006 88.4254 15.841C88.4934 15.6759 88.5939 15.5261 88.7208 15.4006C88.845 15.2741 88.9932 15.1737 89.1567 15.1051C89.3202 15.0365 89.4957 15.0012 89.673 15.0012C89.8502 15.0012 90.0257 15.0365 90.1892 15.1051C90.3527 15.1737 90.5009 15.2741 90.6251 15.4006C90.7521 15.5261 90.8525 15.6759 90.9205 15.841C90.9885 16.006 91.0228 16.1831 91.0211 16.3616C91.0228 16.5402 90.9885 16.7172 90.9205 16.8823C90.8525 17.0474 90.7521 17.1971 90.6251 17.3227C90.5022 17.451 90.3543 17.5527 90.1906 17.6216C90.0268 17.6905 89.8506 17.725 89.673 17.7231ZM62.5628 17.6696V31.0712C62.5628 32.1568 61.7086 32.6997 60 32.6997V33.2069H68.4093C70.5628 33.2069 72.2447 32.7976 73.455 31.9789C74.0656 31.5954 74.5646 31.0581 74.902 30.4208C75.2394 29.7836 75.4032 29.0688 75.3771 28.3482C75.3859 27.777 75.2693 27.2109 75.0356 26.6897C74.8019 26.1685 74.4568 25.7049 74.0245 25.3315C73.1295 24.593 72.0549 24.1048 70.9099 23.9166C73.2829 23.3649 74.4694 22.0745 74.4694 20.0456C74.4694 17.0378 72.0311 15.5339 67.1546 15.5339H60V16.0412C61.7086 16.0412 62.5628 16.584 62.5628 17.6696ZM67.475 23.4538H65.2859V17.3938C65.2859 16.8599 65.7575 16.5929 66.7008 16.5929C67.0211 16.5929 67.6529 16.6196 68.5962 16.673C70.6963 17.0645 71.7464 18.2214 71.7464 20.1435C71.7464 22.3504 70.3226 23.4538 67.475 23.4538ZM65.2859 30.8042V24.5217L66.6207 24.5039C70.4116 24.5039 72.307 25.7586 72.307 28.2681C72.307 30.9021 70.6963 32.2191 67.475 32.2191C66.9517 32.2535 66.4266 32.1902 65.9266 32.0323C65.707 31.9177 65.5278 31.7386 65.4132 31.519C65.2986 31.2994 65.2542 31.0499 65.2859 30.8042ZM79.3549 25.2336V31.0712C79.3761 31.3016 79.3503 31.534 79.2792 31.7542C79.2081 31.9745 79.0931 32.178 78.9411 32.3526C78.4719 32.6649 77.9158 32.8206 77.3527 32.7975V33.1713H83.6263V32.7975C83.0631 32.8206 82.5071 32.6649 82.0379 32.3526C81.8867 32.1777 81.7725 31.974 81.7021 31.7537C81.6318 31.5335 81.6068 31.3013 81.6285 31.0712V24.7308C81.6798 24.2275 81.9011 23.7566 82.2559 23.396C82.6741 22.8887 83.0167 22.6351 83.2837 22.6351C83.592 22.696 83.8701 22.8609 84.0712 23.1023C84.3314 23.3824 84.6905 23.55 85.0723 23.5695C85.7309 23.5695 86.0957 23.2936 86.1669 22.7419C86.3271 21.5554 85.8287 20.9622 84.6719 20.9622C83.5863 20.9622 82.5718 21.763 81.6285 23.3648V20.9622L77.3571 22.3771V22.822C77.6699 22.7305 77.9926 22.6767 78.3182 22.6618C78.4965 22.6538 78.6725 22.7042 78.8195 22.8054C78.9665 22.9066 79.0763 23.053 79.1324 23.2224C79.3174 23.8759 79.3925 24.5555 79.3549 25.2336ZM106.131 22.9021V21.861C105.689 21.9442 105.242 21.9948 104.792 22.0123C103.946 21.9999 103.109 21.8325 102.323 21.5184C101.616 21.2227 100.863 21.0554 100.098 21.0245C98.8826 20.9938 97.7004 21.4228 96.7876 22.2258C96.3441 22.6117 95.992 23.0913 95.7565 23.63C95.521 24.1686 95.4082 24.7528 95.4261 25.3404C95.4261 26.9659 96.2536 28.1524 97.9088 28.8999C96.3248 30.0034 95.5328 30.9733 95.5328 31.8098C95.5328 32.3437 96.0045 32.8065 96.9477 33.198C96.3426 33.7319 95.7286 34.2659 95.1057 34.7998C94.6579 35.1664 94.3706 35.6931 94.3048 36.2681C94.3048 36.8851 94.6875 37.4783 95.4528 38.0478C96.4805 38.7234 97.6944 39.0596 98.9233 39.0089C100.461 39.0034 101.975 38.6183 103.328 37.8877C105.037 37.0156 105.891 35.8943 105.891 34.5239C105.891 33.1535 105.277 32.2814 104.049 31.9077C103.568 31.7594 102.072 31.6259 99.5595 31.5072C98.1713 31.4361 97.3793 31.2403 97.1836 30.9199C97.0797 30.653 97.2281 30.297 97.6285 29.8521C97.8929 29.4985 98.2618 29.237 98.683 29.1046C99.5729 29.1936 100.053 29.2381 100.125 29.2381C101.24 29.2739 102.327 28.8896 103.172 28.1613C103.586 27.7902 103.912 27.3318 104.126 26.8193C104.341 26.3068 104.439 25.7531 104.414 25.198C104.416 24.4047 104.242 23.6208 103.907 22.9021H106.131ZM96.2002 35.5918C96.2002 35.0223 96.6363 34.2392 97.5084 33.2425C98.8407 33.4621 100.189 33.5693 101.54 33.5629C102.364 33.5441 103.187 33.6157 103.996 33.7764C104.761 33.9841 105.144 34.3845 105.144 34.9778C105.144 35.7431 104.676 36.3526 103.742 36.8065C102.558 37.3089 101.276 37.5415 99.9911 37.4872C98.9779 37.5493 97.9659 37.3469 97.0545 36.8999C96.8054 36.7819 96.5937 36.5972 96.4429 36.3663C96.2921 36.1355 96.2082 35.8674 96.2002 35.5918ZM98.2025 27.049C97.8085 26.1682 97.6169 25.2104 97.6418 24.2458V24.2636C97.6418 22.5729 98.336 21.7216 99.7242 21.7097C100.543 21.7097 101.21 22.2258 101.726 23.2581C102.143 24.0866 102.362 25.0003 102.367 25.9277C102.367 27.6897 101.709 28.5707 100.392 28.5707C99.4305 28.5707 98.7008 28.0634 98.2025 27.049ZM124.418 29.327V22.119H127.052V21.2292H124.409V17.7319C123.816 18.4438 123.223 19.1646 122.63 19.8943C122.047 20.5797 121.384 21.1922 120.654 21.7186C120.624 21.786 120.605 21.8583 120.601 21.9322C120.601 22.0341 120.66 22.1002 120.779 22.1307C120.766 22.1347 120.795 22.1397 120.868 22.1457C120.835 22.1425 120.806 22.1375 120.779 22.1307C120.806 22.1229 120.995 22.119 121.348 22.119H122.149V29.772C122.149 31.1424 122.283 32.0857 122.55 32.6018C122.834 33.195 123.404 33.4917 124.258 33.4917C125.486 33.4917 126.634 32.7976 127.702 31.4094L127.355 31.1157C127.1 31.4583 126.766 31.7332 126.38 31.9166C126.132 32.0265 125.865 32.0898 125.593 32.1035C124.81 32.1035 124.418 31.178 124.418 29.327ZM145.12 15.1868L145.36 21.1935H144.72C144.403 19.8353 143.698 18.5986 142.691 17.634C141.664 16.7213 140.327 16.2344 138.953 16.2725C136.835 16.2725 135.234 17.0645 134.148 18.6484C133.139 20.096 132.635 22.0834 132.635 24.6106C132.575 26.4886 133.107 28.3379 134.157 29.8965C134.679 30.6862 135.395 31.329 136.236 31.7637C137.077 32.1983 138.016 32.4102 138.962 32.3793C140.127 32.3786 141.28 32.1416 142.35 31.6828C143.421 31.2239 144.388 30.5527 145.191 29.7096L145.636 30.2436C144.786 31.2658 143.723 32.0903 142.522 32.6596C141.337 33.2549 140.03 33.57 138.704 33.5806C136.017 33.5806 133.837 32.7812 132.164 31.1824C130.402 29.5094 129.521 27.2521 129.521 24.4104C129.481 23.1926 129.688 21.9794 130.128 20.8433C130.569 19.7073 131.234 18.6717 132.083 17.7986C132.943 16.929 133.973 16.2477 135.11 15.798C136.247 15.3484 137.465 15.1402 138.686 15.1868C139.693 15.1969 140.692 15.3589 141.65 15.6674C142.24 15.8779 142.848 16.0387 143.465 16.1479C143.928 16.1479 144.293 15.8275 144.56 15.1868H145.12ZM148.404 18.257V31.0712C148.448 31.5263 148.324 31.9818 148.057 32.3526C147.687 32.6733 147.211 32.8446 146.722 32.8331V33.2069H152.382V32.8331C151.892 32.8446 151.416 32.6733 151.047 32.3526C150.775 31.9836 150.646 31.528 150.686 31.0712V23.9967C151.046 23.5907 151.439 23.2156 151.861 22.8754C152.38 22.5491 152.983 22.382 153.596 22.3949C153.952 22.3595 154.31 22.4355 154.621 22.6124C154.932 22.7894 155.18 23.0585 155.331 23.3826C155.568 24.0686 155.667 24.7941 155.625 25.5184V31.0712C155.665 31.528 155.537 31.9836 155.265 32.3526C154.895 32.6733 154.419 32.8446 153.93 32.8331V33.2069H159.576V32.8331C159.087 32.8446 158.611 32.6733 158.241 32.3526C157.969 31.9836 157.841 31.528 157.881 31.0712V25.4917C157.881 23.9255 157.659 22.8042 157.214 22.1279C156.697 21.3626 155.799 20.98 154.517 20.98C153.058 20.98 151.776 21.6919 150.673 23.1157V15L148.991 15.5606C148.012 15.8454 147.256 16.0501 146.722 16.1746V16.6819C147.505 16.6463 147.981 16.7086 148.15 16.8687C148.319 17.0289 148.404 17.4917 148.404 18.257ZM169.654 25.5183V31.1513C169.654 31.703 169.859 31.9788 170.268 31.9788C170.772 31.9098 171.244 31.6966 171.629 31.3648V32.0589C170.846 33.0022 170.117 33.4738 169.44 33.4738C168.195 33.4738 167.554 32.7975 167.518 31.4449C166.005 32.7975 164.706 33.4738 163.621 33.4738C163.252 33.4768 162.886 33.4063 162.544 33.2665C162.203 33.1267 161.893 32.9203 161.632 32.6594C161.371 32.3985 161.165 32.0884 161.025 31.7469C160.885 31.4055 160.815 31.0397 160.817 30.6707C160.82 30.182 160.928 29.6995 161.136 29.257C161.343 28.8144 161.645 28.4223 162.019 28.1079C162.803 27.4279 163.696 26.8862 164.662 26.5061L167.385 25.4382C167.423 24.5973 167.36 23.7549 167.198 22.9288C167.117 22.5264 166.891 22.1677 166.563 21.9215C166.235 21.6752 165.827 21.5586 165.418 21.594C164.51 21.594 163.932 21.8431 163.683 22.3415C163.6 22.5442 163.572 22.7653 163.603 22.9822L163.656 23.8721C163.641 24.1787 163.512 24.4688 163.295 24.6859C163.078 24.903 162.788 25.0316 162.482 25.0467C161.681 25.0467 161.28 24.6818 161.28 23.9521C161.289 23.6026 161.39 23.2617 161.574 22.9644C162.321 21.6296 163.736 20.9622 165.819 20.9622C167.26 20.9622 168.257 21.3003 168.809 21.9766C169.36 22.6529 169.642 23.8335 169.654 25.5183ZM167.385 30.7241V26.159L165.561 26.8531C164.945 27.0731 164.381 27.4185 163.905 27.8676C163.669 28.1111 163.483 28.3996 163.359 28.7159C163.235 29.0322 163.176 29.3701 163.185 29.7097C163.157 30.2525 163.314 30.7886 163.629 31.2313C163.793 31.4492 164.008 31.6238 164.254 31.7401C164.501 31.8564 164.772 31.9108 165.044 31.8988C165.501 31.856 165.946 31.7246 166.353 31.5117C166.773 31.369 167.136 31.0924 167.385 30.7241ZM175.848 29.327V22.119H178.482V21.2292H175.839V17.7319C175.245 18.4438 174.652 19.1646 174.059 19.8943C173.476 20.5797 172.813 21.1922 172.083 21.7186C172.053 21.786 172.035 21.8583 172.03 21.9322C172.03 22.0341 172.09 22.1002 172.209 22.1307C172.195 22.1347 172.225 22.1397 172.297 22.1457C172.265 22.1425 172.235 22.1375 172.209 22.1307C172.235 22.1229 172.425 22.119 172.778 22.119H173.578V29.772C173.578 31.1424 173.712 32.0857 173.979 32.6018C174.264 33.195 174.833 33.4917 175.687 33.4917C176.915 33.4917 178.063 32.7976 179.131 31.4094L178.784 31.1157C178.53 31.4583 178.195 31.7332 177.81 31.9166C177.561 32.0265 177.294 32.0898 177.022 32.1035C176.239 32.1035 175.848 31.178 175.848 29.327Z" fill="url(#paint0_linear_2461_69811)"/>
</g>
<g clip-path="url(#clip1_2461_69811)">
<path fill-rule="evenodd" clip-rule="evenodd" d="M24.0002 48C37.255 48 48.0002 37.2548 48.0002 24C48.0002 10.7452 37.255 0 24.0002 0C10.7453 0 0.000183105 10.7452 0.000183105 24C0.000183105 37.2548 10.7453 48 24.0002 48Z" fill="url(#paint1_linear_2461_69811)"/>
<path fill-rule="evenodd" clip-rule="evenodd" d="M39.4571 6.74976C40.107 7.72287 40.5446 8.79807 40.7287 9.956C40.7415 10.0358 40.7521 10.1157 40.7622 10.1955C40.902 10.3697 41.0448 10.5529 41.1896 10.7466C41.0429 10.6665 40.916 10.6063 40.8002 10.5588C40.8508 11.1917 40.8226 11.8229 40.7226 12.4477C41.1069 13.2412 41.4127 14.08 41.4434 14.7616C41.4434 14.7616 41.001 13.9325 40.5393 13.3049C40.4102 13.7865 40.2388 14.2626 40.027 14.7309C40.4083 15.8436 40.7311 17.5364 40.6821 17.9078C40.6821 17.9078 40.099 16.5635 39.5579 15.6447C38.2519 17.9113 36.836 19.7406 33.9604 21.2454C34.6628 23.5651 32.8481 26.2078 32.4969 27.1181C36.1968 21.7376 39.8537 22.0904 41.6881 18.6164C43.2306 15.695 43.9888 8.9842 39.4571 6.74976Z" fill="white"/>
<path fill-rule="evenodd" clip-rule="evenodd" d="M43.2356 33.842C43.1859 33.0349 42.2068 33.3882 42.1893 33.3939C41.5158 33.5894 40.8771 33.555 40.0464 33.8908C39.9217 33.9412 39.3489 33.9179 39.1537 33.8908C38.9906 33.868 38.8744 33.4869 38.7965 32.9828C38.6068 31.7564 37.9752 31.2645 37.5466 30.6612C37.118 30.0579 36.7251 29.845 36.7251 28.574C36.9751 29.9159 38.2463 29.9868 38.6537 30.1999C39.4379 30.6099 41.1667 31.9527 41.9036 31.6238C42.6404 31.295 42.8321 30.8741 42.4664 30.2037C42.416 30.0364 42.3657 29.8682 42.3093 29.7074C42.1193 29.1637 41.8614 28.3267 41.6846 27.7812C41.7085 27.3314 41.7654 27.1583 41.6399 26.588C41.556 26.2066 41.439 26.0107 41.2731 25.7085C41.2182 25.6084 40.996 25.3402 40.9235 25.2621C40.9235 25.0701 40.9365 24.9226 40.9881 24.7709C41.0552 24.5738 41.217 24.3449 41.3696 24.2006C41.2125 24.1554 40.9634 24.1094 40.6557 24.1433C40.4377 24.1674 40.2746 24.2414 40.051 24.3484C39.9842 24.3804 39.9001 24.4428 39.7871 24.5359C39.6715 24.4815 39.5054 24.3801 39.3236 24.3282C38.7417 24.162 38.6433 24.1229 37.7845 24.0962C36.2396 24.0485 34.8726 24.85 34.0258 25.6516C33.2731 26.3639 32.1504 27.8267 31.1436 29.7304C31.7126 28.0341 31.8692 26.5963 30.5854 25.0418C29.8581 24.1611 28.6211 23.66 27.0537 23.299C26.763 23.3557 26.0719 23.4737 25.7758 23.5207C19.9837 24.4384 15.1524 23.4194 11.9591 21.1787C11.0105 21.0308 4.68898 20.0067 3.84021 18.8493C3.84021 18.8493 4.44904 21.4499 6.63131 22.6043C8.04555 23.3524 10.4764 23.812 14.3094 23.5266C14.3094 23.5266 12.7303 24.7124 7.75833 24.2027C7.75833 24.2027 10.2774 26.6228 19.414 25.4593C17.9676 26.1398 14.9843 26.4911 11.736 26.4582C13.095 27.3805 16.3764 28.4016 23.0887 27.0181C22.6743 27.8087 17.9928 28.3458 15.9779 28.3357C18.4094 29.4535 20.5992 29.6327 22.356 29.2046C22.356 29.2046 21.0833 29.9497 18.9619 29.8838C20.6856 31.0367 23.0339 31.0175 23.6683 30.9049C23.6683 30.9049 22.9063 31.399 20.9507 31.2013C21.684 32.0139 26.7048 33.5737 29.9216 31.3094C27.576 33.607 23.0189 33.0077 22.3488 32.941C21.243 33.2074 20.6063 34.273 20.6063 34.273C20.6733 33.0409 19.9829 31.8896 18.4282 32.1419C16.7864 32.4083 15.9247 34.3309 13.1675 34.5727C10.8889 34.7725 10.6543 32.5727 10.6543 32.5727C10.4868 36.0711 15.0212 35.8509 15.7141 35.7381C17.8524 35.3901 19.4377 34.2397 20.1037 34.8391C20.0366 35.1388 19.8136 35.6423 19.8136 35.6423C19.4032 36.6198 19.3431 37.7398 19.4587 38.475C19.5341 38.9553 19.1779 39.1239 19.1779 39.1239C18.5802 39.498 17.9554 39.7532 17.7421 39.8491C16.5275 39.8193 16.1477 40.8238 16.1477 40.8238C16.1477 40.8238 14.4462 43.1653 13.9706 43.2786C13.4962 43.391 12.9716 42.8978 12.9716 42.8978C12.3345 43.4406 11.3002 44.1992 11.3002 44.1992C12.9965 44.8659 13.5303 44.5684 14.4044 43.9342C15.0693 43.4518 15.4198 43.1675 15.9758 42.5502C17.19 41.2015 18.4042 40.2788 19.3886 40.5716C19.5158 40.6274 19.5158 40.6274 19.5834 40.6554C19.6491 40.6828 19.9812 40.8365 20.1543 40.8821C19.7153 41.9321 17.8062 43.2815 17.3685 43.4019C16.8358 43.5497 16.6933 43.5589 16.2289 43.2815C15.8023 43.7084 14.8278 44.4813 14.8278 44.4813C16.3443 44.973 18.5527 43.3841 18.5527 43.3841C19.6871 42.5715 21.6307 41.1546 21.6307 41.1546C21.6291 41.1537 21.8433 41.0275 21.8414 41.0273C22.5221 41.0809 23.7612 40.8466 24.5469 40.5273C25.3326 40.2079 26.7255 39.2851 27.0826 38.5044C27.0842 38.5046 27.0856 38.5047 27.0872 38.5048C27.4262 37.7956 27.5911 36.9239 27.3325 35.8781C27.3325 35.8781 27.7459 37.1673 27.5226 38.5485C31.0085 38.865 33.1578 37.3145 34.8324 36.1621C35.5221 35.6874 39.4037 35.5055 40.7607 34.991C41.354 34.5645 42.4036 34.6716 42.4036 34.6716C42.513 35.587 41.9353 36.668 41.6179 37.0848C40.9789 37.9231 39.7288 37.8475 39.4385 37.8499C39.1609 37.8416 38.502 37.5337 38.502 37.5337L36.48 38.1909C36.8447 38.6568 37.7964 39.0417 38.1818 38.9868C38.8699 38.8883 39.084 38.8656 39.5542 38.7612C39.8525 38.6968 40.9592 38.3626 40.9592 38.3626C42.5964 37.817 42.845 36.7966 43.0115 36.4365C43.2177 35.9906 43.2303 35.3231 43.2262 34.5149C43.2243 34.1367 43.2576 34.2719 43.2356 33.842ZM11.9182 21.1498C9.73896 19.6066 8.32342 17.4964 7.92642 15.0223C7.4085 11.7951 9.00802 8.56434 11.9766 6.02344C12.2322 5.8278 13.9908 4.56533 15.3059 3.84C11.3805 5.07591 3.81443 11.0787 3.84021 15.4237C3.84694 16.5585 3.81901 18.9454 11.9182 21.1498ZM11.9182 21.1498C11.9318 21.1594 11.9453 21.1692 11.9591 21.1787C12.0363 21.1908 12.0895 21.199 12.0895 21.199C12.0287 21.1826 11.9781 21.1661 11.9182 21.1498Z" fill="white"/>
</g>
<defs>
<linearGradient id="paint0_linear_2461_69811" x1="58.9196" y1="17.3848" x2="182.289" y2="25.4328" gradientUnits="userSpaceOnUse">
<stop stop-color="#003892"/>
<stop offset="1" stop-color="#0057FF"/>
</linearGradient>
<linearGradient id="paint1_linear_2461_69811" x1="11.5187" y1="0.716377" x2="37.4553" y2="42.3345" gradientUnits="userSpaceOnUse">
<stop stop-color="#4DB3FF"/>
<stop offset="1" stop-color="#0D57DD"/>
</linearGradient>
<clipPath id="clip0_2461_69811">
<rect width="118.131" height="24" fill="white" transform="translate(60 15)"/>
</clipPath>
<clipPath id="clip1_2461_69811">
<rect width="48" height="48" fill="white"/>
</clipPath>
</defs>
</svg>
